<?xml version="1.0" standalone="no"?>
<!DOCTYPE svg PUBLIC "-//W3C//DTD SVG 20010904//EN"
 "http://www.w3.org/TR/2001/REC-SVG-20010904/DTD/svg10.dtd">
<svg version="1.0" xmlns="http://www.w3.org/2000/svg"
 width="337.000000pt" height="337.000000pt" viewBox="0 0 337.000000 337.000000"
 preserveAspectRatio="xMidYMid meet">
<metadata>
Created by potrace 1.14, written by Peter Selinger 2001-2017
</metadata>
<g transform="translate(0.000000,337.000000) scale(0.100000,-0.100000)"
fill="#000000" stroke="none">
<path d="M1438 3214 c-3 -2 -35 -6 -72 -9 -37 -2 -79 -6 -94 -9 -15 -4 -36 -8
-47 -10 -41 -9 -142 -45 -199 -71 -55 -25 -155 -82 -166 -95 -3 -3 -23 -18
-45 -34 -96 -70 -210 -203 -278 -327 -33 -60 -83 -201 -97 -274 -16 -80 -21
-261 -10 -360 14 -132 21 -188 26 -220 22 -139 92 -294 182 -407 71 -88 127
-141 208 -196 65 -44 222 -121 263 -129 13 -2 28 -6 33 -9 10 -6 29 -10 138
-30 81 -15 289 -15 330 0 8 3 26 7 40 10 66 11 203 53 223 69 2 1 18 -15 37
-36 l33 -39 -18 -50 c-21 -58 -29 -119 -21 -151 3 -13 43 -62 89 -109 45 -47
112 -118 147 -158 36 -39 81 -89 100 -110 58 -62 91 -99 195 -220 55 -63 113
-126 129 -140 17 -14 37 -32 45 -41 27 -28 59 -40 121 -44 93 -6 147 15 209
80 72 76 101 144 106 247 2 46 6 114 9 151 6 81 -13 148 -55 197 -44 51 -275
295 -419 444 -69 70 -131 135 -138 142 -25 26 -75 46 -113 46 -26 -1 -39 4
-43 16 -3 9 -8 22 -11 27 -3 6 9 26 26 45 43 50 56 78 105 224 31 92 45 153
49 210 3 45 8 106 11 136 12 117 10 302 -3 373 -29 154 -91 302 -182 432 -45
65 -165 195 -180 195 -5 0 -15 7 -22 16 -30 37 -197 130 -274 153 -22 7 -47
15 -55 18 -8 4 -18 7 -22 8 -5 2 -9 4 -10 5 -2 1 -14 3 -28 5 -14 2 -36 6 -50
10 -14 3 -60 8 -103 10 -43 2 -82 7 -86 9 -5 3 -10 3 -13 0z"/>
</g>
</svg>
